<mxfile host="app.diagrams.net" agent="Mozilla/5.0 (Windows NT 10.0; Win64; x64) AppleWebKit/537.36 (KHTML, like Gecko) Chrome/135.0.0.0 Safari/537.36 Edg/135.0.0.0" version="26.2.14">
  <diagram name="第 1 页" id="ulnEvbnZ-n11O7iyt5Gd">
    <mxGraphModel dx="778" dy="460" grid="1" gridSize="10" guides="1" tooltips="1" connect="1" arrows="0" fold="1" page="1" pageScale="1" pageWidth="827" pageHeight="1169" math="0" shadow="0">
      <root>
        <mxCell id="0" />
        <mxCell id="1" parent="0" />
        <mxCell id="UEYiM6BG_5IpnTY2fkz6-15" value="" style="rounded=0;whiteSpace=wrap;html=1;" parent="1" vertex="1">
          <mxGeometry x="80" y="630" width="80" height="50" as="geometry" />
        </mxCell>
        <mxCell id="UEYiM6BG_5IpnTY2fkz6-16" value="&lt;font style=&quot;font-size: 16px;&quot;&gt;設備部門&lt;/font&gt;" style="text;html=1;align=center;verticalAlign=middle;whiteSpace=wrap;rounded=0;rotation=0;" parent="1" vertex="1">
          <mxGeometry x="80" y="630" width="80" height="50" as="geometry" />
        </mxCell>
        <mxCell id="UEYiM6BG_5IpnTY2fkz6-17" value="" style="ellipse;whiteSpace=wrap;html=1;aspect=fixed;" parent="1" vertex="1">
          <mxGeometry x="190" y="420" width="90" height="90" as="geometry" />
        </mxCell>
        <mxCell id="UEYiM6BG_5IpnTY2fkz6-18" value="&lt;div&gt;&lt;span style=&quot;font-size: 16px; background-color: transparent; color: light-dark(rgb(0, 0, 0), rgb(255, 255, 255));&quot;&gt;1.2.1&lt;/span&gt;&lt;/div&gt;&lt;span style=&quot;font-size: 16px; background-color: transparent; color: light-dark(rgb(0, 0, 0), rgb(255, 255, 255));&quot;&gt;車輛&lt;/span&gt;&lt;div&gt;&lt;div&gt;&lt;font style=&quot;font-size: 16px;&quot;&gt;資訊輸入&lt;/font&gt;&lt;/div&gt;&lt;/div&gt;" style="text;html=1;align=center;verticalAlign=middle;whiteSpace=wrap;rounded=0;" parent="1" vertex="1">
          <mxGeometry x="200" y="440" width="70" height="50" as="geometry" />
        </mxCell>
        <mxCell id="UEYiM6BG_5IpnTY2fkz6-31" value="&lt;span style=&quot;font-size: 16px;&quot;&gt;成&lt;/span&gt;&lt;div&gt;&lt;span style=&quot;font-size: 16px;&quot;&gt;功&lt;/span&gt;&lt;/div&gt;&lt;div&gt;&lt;span style=&quot;font-size: 16px;&quot;&gt;訊&lt;/span&gt;&lt;/div&gt;&lt;div&gt;&lt;span style=&quot;font-size: 16px;&quot;&gt;息&lt;/span&gt;&lt;/div&gt;" style="text;html=1;align=center;verticalAlign=middle;whiteSpace=wrap;rounded=0;" parent="1" vertex="1">
          <mxGeometry x="190" y="567" width="20" height="35" as="geometry" />
        </mxCell>
        <mxCell id="UEYiM6BG_5IpnTY2fkz6-32" value="&lt;font style=&quot;font-size: 16px;&quot;&gt;車輛資訊&lt;/font&gt;" style="text;html=1;align=center;verticalAlign=middle;whiteSpace=wrap;rounded=0;" parent="1" vertex="1">
          <mxGeometry x="120" y="510" width="20" height="40" as="geometry" />
        </mxCell>
        <mxCell id="UEYiM6BG_5IpnTY2fkz6-33" value="" style="endArrow=none;html=1;rounded=0;" parent="1" edge="1">
          <mxGeometry width="50" height="50" relative="1" as="geometry">
            <mxPoint x="360" y="360" as="sourcePoint" />
            <mxPoint x="480" y="360" as="targetPoint" />
          </mxGeometry>
        </mxCell>
        <mxCell id="UEYiM6BG_5IpnTY2fkz6-34" value="" style="endArrow=none;html=1;rounded=0;" parent="1" edge="1">
          <mxGeometry width="50" height="50" relative="1" as="geometry">
            <mxPoint x="360" y="400" as="sourcePoint" />
            <mxPoint x="480" y="400" as="targetPoint" />
          </mxGeometry>
        </mxCell>
        <mxCell id="UEYiM6BG_5IpnTY2fkz6-35" value="&lt;font style=&quot;font-size: 16px;&quot;&gt;車輛資料表&lt;/font&gt;" style="text;html=1;align=center;verticalAlign=middle;whiteSpace=wrap;rounded=0;" parent="1" vertex="1">
          <mxGeometry x="360" y="360" width="120" height="40" as="geometry" />
        </mxCell>
        <mxCell id="UEYiM6BG_5IpnTY2fkz6-36" value="" style="endArrow=classic;html=1;rounded=0;entryX=1.017;entryY=0.34;entryDx=0;entryDy=0;entryPerimeter=0;exitX=0;exitY=0.75;exitDx=0;exitDy=0;" parent="1" source="UEYiM6BG_5IpnTY2fkz6-35" target="UEYiM6BG_5IpnTY2fkz6-17" edge="1">
          <mxGeometry width="50" height="50" relative="1" as="geometry">
            <mxPoint x="370" y="500" as="sourcePoint" />
            <mxPoint x="420" y="450" as="targetPoint" />
          </mxGeometry>
        </mxCell>
        <mxCell id="UEYiM6BG_5IpnTY2fkz6-37" value="" style="endArrow=classic;html=1;rounded=0;entryX=0;entryY=0.25;entryDx=0;entryDy=0;" parent="1" target="UEYiM6BG_5IpnTY2fkz6-35" edge="1">
          <mxGeometry width="50" height="50" relative="1" as="geometry">
            <mxPoint x="280" y="430" as="sourcePoint" />
            <mxPoint x="420" y="450" as="targetPoint" />
          </mxGeometry>
        </mxCell>
        <mxCell id="UEYiM6BG_5IpnTY2fkz6-49" value="" style="edgeStyle=none;orthogonalLoop=1;jettySize=auto;html=1;rounded=0;exitX=0.375;exitY=0;exitDx=0;exitDy=0;entryX=0;entryY=0.667;entryDx=0;entryDy=0;entryPerimeter=0;exitPerimeter=0;" parent="1" source="UEYiM6BG_5IpnTY2fkz6-16" target="UEYiM6BG_5IpnTY2fkz6-17" edge="1">
          <mxGeometry width="100" relative="1" as="geometry">
            <mxPoint x="60" y="610" as="sourcePoint" />
            <mxPoint x="160" y="610" as="targetPoint" />
            <Array as="points">
              <mxPoint x="120" y="610" />
            </Array>
          </mxGeometry>
        </mxCell>
        <mxCell id="UEYiM6BG_5IpnTY2fkz6-51" value="" style="edgeStyle=none;orthogonalLoop=1;jettySize=auto;html=1;rounded=0;entryX=0.75;entryY=0;entryDx=0;entryDy=0;exitX=0.273;exitY=0.967;exitDx=0;exitDy=0;exitPerimeter=0;" parent="1" source="UEYiM6BG_5IpnTY2fkz6-17" target="UEYiM6BG_5IpnTY2fkz6-16" edge="1">
          <mxGeometry width="100" relative="1" as="geometry">
            <mxPoint x="140" y="620" as="sourcePoint" />
            <mxPoint x="260" y="500" as="targetPoint" />
            <Array as="points" />
          </mxGeometry>
        </mxCell>
        <mxCell id="1VaG84q23NE-SojJMcSh-1" value="&lt;font style=&quot;font-size: 16px;&quot;&gt;成功訊息&lt;/font&gt;" style="text;html=1;align=center;verticalAlign=middle;resizable=0;points=[];autosize=1;strokeColor=none;fillColor=none;rotation=0;" vertex="1" parent="1">
          <mxGeometry x="310" y="420" width="90" height="30" as="geometry" />
        </mxCell>
        <mxCell id="1VaG84q23NE-SojJMcSh-2" value="&lt;font style=&quot;font-size: 16px;&quot;&gt;車輛資訊&lt;/font&gt;" style="text;html=1;align=center;verticalAlign=middle;resizable=0;points=[];autosize=1;strokeColor=none;fillColor=none;" vertex="1" parent="1">
          <mxGeometry x="240" y="370" width="90" height="30" as="geometry" />
        </mxCell>
      </root>
    </mxGraphModel>
  </diagram>
</mxfile>
